<mxfile host="app.diagrams.net" modified="2021-02-09T04:09:55.337Z" agent="5.0 (X11)" etag="aERyTSrEoc4jSf8yJJ8d" version="14.3.0" type="github">
  <diagram id="UYULv2cX8PyH8OnsrH18" name="Page-1">
    <mxGraphModel dx="3693" dy="1577" grid="1" gridSize="10" guides="1" tooltips="1" connect="1" arrows="1" fold="1" page="1" pageScale="1" pageWidth="2500" pageHeight="1500" math="0" shadow="0">
      <root>
        <mxCell id="0" />
        <mxCell id="1" parent="0" />
        <mxCell id="HojFe_wWk9AMnfXZ6pRx-1" value="" style="rounded=0;whiteSpace=wrap;html=1;" vertex="1" parent="1">
          <mxGeometry x="80" y="230" width="440" height="900" as="geometry" />
        </mxCell>
        <mxCell id="HojFe_wWk9AMnfXZ6pRx-2" value="&lt;font style=&quot;font-size: 36px&quot;&gt;PARENT&lt;/font&gt;" style="rounded=1;whiteSpace=wrap;html=1;" vertex="1" parent="1">
          <mxGeometry x="170" y="330" width="260" height="100" as="geometry" />
        </mxCell>
        <mxCell id="HojFe_wWk9AMnfXZ6pRx-4" style="edgeStyle=orthogonalEdgeStyle;rounded=0;orthogonalLoop=1;jettySize=auto;html=1;exitX=0.5;exitY=0;exitDx=0;exitDy=0;entryX=0.5;entryY=1;entryDx=0;entryDy=0;shape=flexArrow;" edge="1" parent="1" source="HojFe_wWk9AMnfXZ6pRx-3" target="HojFe_wWk9AMnfXZ6pRx-2">
          <mxGeometry relative="1" as="geometry" />
        </mxCell>
        <mxCell id="HojFe_wWk9AMnfXZ6pRx-3" value="&lt;font style=&quot;font-size: 36px&quot;&gt;CHILD&lt;/font&gt;" style="rounded=1;whiteSpace=wrap;html=1;" vertex="1" parent="1">
          <mxGeometry x="170" y="530" width="260" height="100" as="geometry" />
        </mxCell>
        <mxCell id="HojFe_wWk9AMnfXZ6pRx-5" value="&lt;font style=&quot;font-size: 36px&quot;&gt;SINGLE&lt;/font&gt;" style="rounded=0;whiteSpace=wrap;html=1;" vertex="1" parent="1">
          <mxGeometry x="195" y="940" width="210" height="120" as="geometry" />
        </mxCell>
        <mxCell id="HojFe_wWk9AMnfXZ6pRx-6" value="" style="rounded=0;whiteSpace=wrap;html=1;" vertex="1" parent="1">
          <mxGeometry x="570" y="230" width="440" height="900" as="geometry" />
        </mxCell>
        <mxCell id="HojFe_wWk9AMnfXZ6pRx-7" value="&lt;font style=&quot;font-size: 36px&quot;&gt;PARENT&lt;/font&gt;" style="rounded=1;whiteSpace=wrap;html=1;" vertex="1" parent="1">
          <mxGeometry x="660" y="330" width="260" height="100" as="geometry" />
        </mxCell>
        <mxCell id="HojFe_wWk9AMnfXZ6pRx-8" style="edgeStyle=orthogonalEdgeStyle;rounded=0;orthogonalLoop=1;jettySize=auto;html=1;exitX=0.5;exitY=0;exitDx=0;exitDy=0;entryX=0.5;entryY=1;entryDx=0;entryDy=0;shape=flexArrow;" edge="1" source="HojFe_wWk9AMnfXZ6pRx-9" target="HojFe_wWk9AMnfXZ6pRx-7" parent="1">
          <mxGeometry relative="1" as="geometry" />
        </mxCell>
        <mxCell id="HojFe_wWk9AMnfXZ6pRx-9" value="&lt;font style=&quot;font-size: 36px&quot;&gt;CHILD 1&lt;/font&gt;" style="rounded=1;whiteSpace=wrap;html=1;" vertex="1" parent="1">
          <mxGeometry x="660" y="530" width="260" height="100" as="geometry" />
        </mxCell>
        <mxCell id="HojFe_wWk9AMnfXZ6pRx-10" value="&lt;font style=&quot;font-size: 36px&quot;&gt;Multilevel&lt;/font&gt;" style="rounded=0;whiteSpace=wrap;html=1;" vertex="1" parent="1">
          <mxGeometry x="685" y="940" width="210" height="120" as="geometry" />
        </mxCell>
        <mxCell id="HojFe_wWk9AMnfXZ6pRx-12" value="" style="edgeStyle=orthogonalEdgeStyle;shape=flexArrow;rounded=0;orthogonalLoop=1;jettySize=auto;html=1;" edge="1" parent="1" source="HojFe_wWk9AMnfXZ6pRx-11" target="HojFe_wWk9AMnfXZ6pRx-9">
          <mxGeometry relative="1" as="geometry" />
        </mxCell>
        <mxCell id="HojFe_wWk9AMnfXZ6pRx-11" value="&lt;font style=&quot;font-size: 36px&quot;&gt;CHILD 2&lt;br&gt;&lt;/font&gt;" style="rounded=1;whiteSpace=wrap;html=1;" vertex="1" parent="1">
          <mxGeometry x="660" y="700" width="260" height="100" as="geometry" />
        </mxCell>
        <mxCell id="HojFe_wWk9AMnfXZ6pRx-13" value="" style="rounded=0;whiteSpace=wrap;html=1;" vertex="1" parent="1">
          <mxGeometry x="1050" y="230" width="650" height="900" as="geometry" />
        </mxCell>
        <mxCell id="HojFe_wWk9AMnfXZ6pRx-14" value="&lt;font style=&quot;font-size: 36px&quot;&gt;PARENT&lt;/font&gt;" style="rounded=1;whiteSpace=wrap;html=1;" vertex="1" parent="1">
          <mxGeometry x="1270" y="310" width="260" height="100" as="geometry" />
        </mxCell>
        <mxCell id="HojFe_wWk9AMnfXZ6pRx-15" style="edgeStyle=orthogonalEdgeStyle;rounded=0;orthogonalLoop=1;jettySize=auto;html=1;exitX=0.5;exitY=0;exitDx=0;exitDy=0;entryX=0.25;entryY=1;entryDx=0;entryDy=0;shape=flexArrow;" edge="1" source="HojFe_wWk9AMnfXZ6pRx-16" target="HojFe_wWk9AMnfXZ6pRx-14" parent="1">
          <mxGeometry relative="1" as="geometry" />
        </mxCell>
        <mxCell id="HojFe_wWk9AMnfXZ6pRx-16" value="&lt;font style=&quot;font-size: 36px&quot;&gt;CHILD 1&lt;/font&gt;" style="rounded=1;whiteSpace=wrap;html=1;" vertex="1" parent="1">
          <mxGeometry x="1110" y="640" width="260" height="100" as="geometry" />
        </mxCell>
        <mxCell id="HojFe_wWk9AMnfXZ6pRx-17" value="&lt;font style=&quot;font-size: 36px&quot;&gt;Hirarchical&lt;/font&gt;" style="rounded=0;whiteSpace=wrap;html=1;" vertex="1" parent="1">
          <mxGeometry x="1280" y="930" width="210" height="120" as="geometry" />
        </mxCell>
        <mxCell id="HojFe_wWk9AMnfXZ6pRx-18" value="" style="edgeStyle=orthogonalEdgeStyle;shape=flexArrow;rounded=0;orthogonalLoop=1;jettySize=auto;html=1;entryX=0.654;entryY=1;entryDx=0;entryDy=0;entryPerimeter=0;" edge="1" source="HojFe_wWk9AMnfXZ6pRx-19" target="HojFe_wWk9AMnfXZ6pRx-14" parent="1">
          <mxGeometry relative="1" as="geometry" />
        </mxCell>
        <mxCell id="HojFe_wWk9AMnfXZ6pRx-19" value="&lt;font style=&quot;font-size: 36px&quot;&gt;CHILD 2&lt;br&gt;&lt;/font&gt;" style="rounded=1;whiteSpace=wrap;html=1;" vertex="1" parent="1">
          <mxGeometry x="1390" y="640" width="260" height="100" as="geometry" />
        </mxCell>
        <mxCell id="HojFe_wWk9AMnfXZ6pRx-20" value="" style="rounded=0;whiteSpace=wrap;html=1;" vertex="1" parent="1">
          <mxGeometry x="1740" y="230" width="650" height="900" as="geometry" />
        </mxCell>
        <mxCell id="HojFe_wWk9AMnfXZ6pRx-21" value="&lt;font style=&quot;font-size: 36px&quot;&gt;CHILD&lt;/font&gt;" style="rounded=1;whiteSpace=wrap;html=1;" vertex="1" parent="1">
          <mxGeometry x="1945" y="610" width="260" height="100" as="geometry" />
        </mxCell>
        <mxCell id="HojFe_wWk9AMnfXZ6pRx-22" style="edgeStyle=orthogonalEdgeStyle;rounded=0;orthogonalLoop=1;jettySize=auto;html=1;exitX=0.5;exitY=1;exitDx=0;exitDy=0;shape=flexArrow;entryX=0.25;entryY=0;entryDx=0;entryDy=0;" edge="1" source="HojFe_wWk9AMnfXZ6pRx-23" target="HojFe_wWk9AMnfXZ6pRx-21" parent="1">
          <mxGeometry relative="1" as="geometry">
            <mxPoint x="2020" y="580" as="targetPoint" />
          </mxGeometry>
        </mxCell>
        <mxCell id="HojFe_wWk9AMnfXZ6pRx-23" value="&lt;font style=&quot;font-size: 36px&quot;&gt;PARENT 1&lt;br&gt;&lt;/font&gt;" style="rounded=1;whiteSpace=wrap;html=1;" vertex="1" parent="1">
          <mxGeometry x="1770" y="250" width="260" height="100" as="geometry" />
        </mxCell>
        <mxCell id="HojFe_wWk9AMnfXZ6pRx-24" value="&lt;font style=&quot;font-size: 36px&quot;&gt;MULTIPLE&lt;/font&gt;" style="rounded=0;whiteSpace=wrap;html=1;" vertex="1" parent="1">
          <mxGeometry x="1970" y="930" width="210" height="120" as="geometry" />
        </mxCell>
        <mxCell id="HojFe_wWk9AMnfXZ6pRx-25" value="" style="edgeStyle=orthogonalEdgeStyle;shape=flexArrow;rounded=0;orthogonalLoop=1;jettySize=auto;html=1;entryX=0.75;entryY=0;entryDx=0;entryDy=0;" edge="1" source="HojFe_wWk9AMnfXZ6pRx-26" target="HojFe_wWk9AMnfXZ6pRx-21" parent="1">
          <mxGeometry relative="1" as="geometry" />
        </mxCell>
        <mxCell id="HojFe_wWk9AMnfXZ6pRx-26" value="&lt;font style=&quot;font-size: 36px&quot;&gt;PARENT 2&lt;br&gt;&lt;/font&gt;" style="rounded=1;whiteSpace=wrap;html=1;" vertex="1" parent="1">
          <mxGeometry x="2100" y="250" width="260" height="100" as="geometry" />
        </mxCell>
      </root>
    </mxGraphModel>
  </diagram>
</mxfile>
